<!DOCTYPE svg PUBLIC "-//W3C//DTD SVG 1.1//EN" "http://www.w3.org/Graphics/SVG/1.1/DTD/svg11.dtd">
<!-- Uploaded to: SVG Repo, www.svgrepo.com, Transformed by: SVG Repo Mixer Tools -->
<svg fill="#F7931A" height="800px" width="800px" version="1.1" id="Layer_1" xmlns="http://www.w3.org/2000/svg" xmlns:xlink="http://www.w3.org/1999/xlink" viewBox="0 0 511.83 511.83" xml:space="preserve" stroke="#F7931A" stroke-width="0.0051183">
<g id="SVGRepo_bgCarrier" stroke-width="0"/>
<g id="SVGRepo_tracerCarrier" stroke-linecap="round" stroke-linejoin="round"/>
<g id="SVGRepo_iconCarrier"> <g> <g> <path d="M429.339,218.305c23.195-27.725,35.05-55.497,39.391-75.053l0.507-4.623v-33.515c0-43.889-15.455-74.307-41.687-91.377 c-15.943-10.375-31.776-13.78-43.704-13.732c-11.479-0.026-26.888,3.276-42.505,13.18C325.695,3.251,310.223-0.047,298.514,0 c-11.556-0.047-27.031,3.252-42.68,13.192c-15.621-9.91-31.038-13.214-42.641-13.188c-11.803-0.048-27.636,3.358-43.579,13.732 c-26.232,17.069-41.687,47.488-41.687,91.377v33.515l0.507,4.623c4.341,19.556,16.196,47.328,39.391,75.053 c0.903,1.08,1.84,2.139,2.769,3.202v13.075h-42.667c-23.589,0-42.667-19.078-42.667-42.667c0-11.782-9.551-21.333-21.333-21.333 c-11.782,0-21.333,9.551-21.333,21.333c0,25.504,11.184,48.367,28.901,64c-17.718,15.633-28.901,38.496-28.901,64 c0,11.782,9.551,21.333,21.333,21.333c11.782,0,21.333-9.551,21.333-21.333c0-23.589,19.078-42.667,42.667-42.667h42.667v13.075 c-0.929,1.064-1.865,2.122-2.769,3.202c-23.195,27.725-35.05,55.497-39.391,75.053l-0.507,4.623v33.515 c0,43.889,15.455,74.307,41.687,91.377c15.943,10.375,31.776,13.78,43.704,13.732c11.479,0.026,26.888-3.276,42.506-13.181 c15.646,9.935,31.119,13.232,42.827,13.185c11.556,0.047,27.03-3.252,42.679-13.191c15.621,9.91,31.037,13.213,42.64,13.187 c11.803,0.048,27.636-3.358,43.579-13.732c26.232-17.07,41.687-47.488,41.687-91.377v-33.515l-0.507-4.623 c-4.341-19.556-16.196-47.328-39.391-75.053c-0.896-1.071-1.824-2.12-2.745-3.175v-68.87 C427.514,220.425,428.443,219.376,429.339,218.305z M353.454,277.244l-0.004,0.004h-24.415H268.11h-24.396l-0.004-0.004h-30.45 v-42.658h30.45l0.004-0.004h24.417h60.925h24.394l0.004,0.004h30.473v42.658H353.454z M383.875,42.671 c4.488-0.018,12.548,1.716,20.403,6.828c13.755,8.951,22.291,25.752,22.291,55.615v30.895c-0.905,3.267-2.643,8.407-5.4,14.865 c-5.822,13.64-13.904,27.32-24.556,40.052c-0.276,0.33-0.554,0.66-0.834,0.988h-23.703c-1.838-2.164-3.604-4.369-5.308-6.61 c8.763-15.775,14.036-30.381,16.628-42.057l0.507-4.623V105.11c0-23.768-4.541-43.577-12.863-59.463 C376.246,43.483,380.948,42.665,383.875,42.671z M318.947,49.495c1.694,1.102,3.307,2.325,4.836,3.674l2.109,2.19 c9.574,9.94,15.323,25.653,15.323,49.755v30.839c-0.596,2.098-1.604,5.217-3.094,9.15c-3.584,9.463-8.475,19.442-14.837,29.394 l-1.807,2.826c-3.098,4.619-6.487,9.167-10.194,13.599c-0.278,0.332-0.557,0.663-0.837,0.992h-23.704 c-0.281-0.33-0.56-0.661-0.837-0.992c-3.896-4.657-7.445-9.442-10.669-14.305l-1.355-2.12 c-6.363-9.952-11.253-19.931-14.837-29.394c-1.49-3.933-2.498-7.053-3.094-9.15v-30.839c0-1.402,0.024-2.77,0.062-4.116 c0.005-0.168,0.009-0.337,0.014-0.504c0.695-21.51,6.299-35.846,15.246-45.135l1.965-2.04c1.579-1.409,3.248-2.681,5.004-3.824 c7.856-5.112,15.915-6.845,20.261-6.828C303.032,42.649,311.092,44.383,318.947,49.495z M170.593,105.114 c0-29.863,8.537-46.665,22.291-55.615c7.856-5.112,15.915-6.845,20.261-6.828c3.078-0.006,7.785,0.813,12.995,2.983 c-4.68,8.936-8.16,19.117-10.31,30.544c-0.013,0.07-0.026,0.14-0.039,0.21c-0.208,1.116-0.404,2.243-0.586,3.383 c-0.037,0.231-0.074,0.462-0.11,0.694c-0.153,0.989-0.297,1.988-0.431,2.995c-0.046,0.343-0.092,0.685-0.136,1.03 c-0.115,0.914-0.22,1.837-0.319,2.766c-0.045,0.419-0.092,0.837-0.134,1.259c-0.086,0.877-0.162,1.763-0.234,2.652 c-0.038,0.469-0.08,0.934-0.114,1.406c-0.063,0.877-0.114,1.764-0.164,2.653c-0.027,0.485-0.06,0.966-0.083,1.454 c-0.045,0.952-0.076,1.918-0.105,2.884c-0.013,0.429-0.033,0.852-0.043,1.284c-0.033,1.4-0.051,2.813-0.051,4.241v0.004v33.51 v0.004l0.058,0.521l0.449,4.098c0.002,0.01,0.005,0.021,0.007,0.031l0.001,0.011c0.022,0.1,0.049,0.206,0.072,0.307 c2.618,11.614,7.866,26.078,16.538,41.691c-1.708,2.247-3.479,4.458-5.321,6.628h-23.703c-0.279-0.328-0.557-0.658-0.834-0.988 c-10.652-12.733-18.734-26.413-24.556-40.052c-2.757-6.458-4.494-11.598-5.4-14.865V105.114z M213.288,469.159 c-4.488,0.018-12.548-1.716-20.404-6.828c-13.755-8.951-22.291-25.752-22.291-55.615v-30.895c0.905-3.267,2.643-8.407,5.4-14.865 c5.822-13.64,13.904-27.32,24.556-40.053c0.276-0.33,0.554-0.66,0.834-0.988h23.703c1.838,2.164,3.605,4.37,5.309,6.612 c-8.763,15.775-14.036,30.38-16.627,42.056l-0.507,4.623v33.515c0,23.768,4.541,43.576,12.863,59.462 C220.919,468.347,216.216,469.165,213.288,469.159z M278.218,462.335c-1.698-1.105-3.316-2.331-4.849-3.685l-2.099-2.179 c-9.574-9.94-15.323-25.653-15.323-49.755v-30.839c0.596-2.098,1.604-5.217,3.094-9.15c3.584-9.463,8.475-19.442,14.837-29.394 l1.766-2.762c3.109-4.641,6.513-9.211,10.237-13.663c0.278-0.332,0.557-0.663,0.837-0.992h23.704 c0.281,0.33,0.56,0.661,0.837,0.992c3.879,4.637,7.413,9.4,10.626,14.241l1.396,2.184c6.363,9.952,11.253,19.931,14.837,29.394 c1.49,3.933,2.498,7.053,3.094,9.15v30.839c0,1.46-0.023,2.887-0.065,4.286c-0.002,0.074-0.004,0.149-0.006,0.223 c-0.679,21.573-6.288,35.94-15.252,45.246l-1.981,2.057c-1.573,1.402-3.237,2.669-4.985,3.807 c-7.856,5.112-15.915,6.845-20.261,6.828C294.133,469.181,286.074,467.447,278.218,462.335z M426.57,406.716 c0,29.863-8.537,46.665-22.291,55.615c-7.855,5.112-15.915,6.845-20.261,6.828c-3.077,0.006-7.784-0.813-12.993-2.982 c5.185-9.899,8.896-21.325,10.958-34.281c0.021-0.134,0.043-0.269,0.064-0.403c0.171-1.095,0.33-2.202,0.477-3.319 c0.032-0.241,0.064-0.481,0.095-0.722c0.131-1.032,0.25-2.074,0.361-3.124c0.032-0.304,0.066-0.607,0.097-0.913 c0.101-1.016,0.189-2.044,0.271-3.077c0.026-0.331,0.056-0.658,0.08-0.991c0.078-1.06,0.141-2.132,0.199-3.21 c0.016-0.303,0.037-0.601,0.052-0.905c0.06-1.244,0.104-2.501,0.137-3.768c0.004-0.136,0.01-0.269,0.014-0.405 c0.034-1.432,0.054-2.877,0.054-4.34v-33.515l-0.507-4.623c-2.591-11.672-7.861-26.272-16.619-42.041 c1.708-2.247,3.478-4.457,5.32-6.626h23.703c0.279,0.328,0.557,0.658,0.834,0.988c10.652,12.733,18.734,26.413,24.556,40.053 c2.757,6.458,4.494,11.598,5.4,14.865V406.716z"/> </g> </g> </g>
</svg>