<!DOCTYPE svg PUBLIC "-//W3C//DTD SVG 1.1//EN" "http://www.w3.org/Graphics/SVG/1.1/DTD/svg11.dtd">
<!-- Uploaded to: SVG Repo, www.svgrepo.com, Transformed by: SVG Repo Mixer Tools -->
<svg width="800px" height="800px" viewBox="0 0 24 24" version="1.1" xml:space="preserve" xmlns="http://www.w3.org/2000/svg" xmlns:xlink="http://www.w3.org/1999/xlink" fill="#F7931A">
<g id="SVGRepo_bgCarrier" stroke-width="0"/>
<g id="SVGRepo_tracerCarrier" stroke-linecap="round" stroke-linejoin="round"/>
<g id="SVGRepo_iconCarrier"> <style type="text/css"> .st0{opacity:0.2;fill:none;stroke:#000000;stroke-width:5.000000e-02;stroke-miterlimit:10;} </style> <g id="Layer_Grid"/> <g id="Layer_2"> <path d="M12,7c0.6,0,1,0.4,1,1c0,0.6,0.4,1,1,1h3c0.6,0,1-0.4,1-1c0-3.3-2.7-6-6-6S6,4.7,6,8v10c0,2.2,1.8,4,4,4h4c2.2,0,4-1.8,4-4 v-2.8c0-1.8-1.1-3.3-2.7-4l-2.9-1.2C12.3,10,12.1,10,12,10c-0.6,0-1-0.4-1-1V8C11,7.4,11.4,7,12,7z M11.8,12l2.8,1.1 c0.9,0.4,1.5,1.2,1.5,2.1V18c0,1.1-0.9,2-2,2h-4c-1.1,0-2-0.9-2-2V8c0-2.2,1.8-4,4-4c1.9,0,3.4,1.3,3.9,3h-1c-0.4-1.2-1.5-2-2.8-2 c-1.7,0-3,1.3-3,3v1C9,10.6,10.2,11.9,11.8,12z"/> </g> </g>
</svg>