<?xml version="1.0" encoding="UTF-8"?>
<svg xmlns="http://www.w3.org/2000/svg" xmlns:xlink="http://www.w3.org/1999/xlink" width="48" height="48" viewBox="0 0 48 48" version="1.1">
<g id="surface1">
<path style=" stroke:none;fill-rule:nonzero;fill:rgb(96.862745%,57.647061%,10.196079%);fill-opacity:1;" d="M 47.28125 29.804688 C 44.074219 42.664062 31.050781 50.488281 18.191406 47.28125 C 5.339844 44.074219 -2.484375 31.054688 0.722656 18.195312 C 3.925781 5.335938 16.949219 -2.488281 29.804688 0.71875 C 42.660156 3.921875 50.484375 16.949219 47.28125 29.804688 Z M 47.28125 29.804688 "/>
<path style=" stroke:none;fill-rule:nonzero;fill:rgb(100%,100%,100%);fill-opacity:1;" d="M 34.582031 20.582031 C 35.058594 17.386719 32.628906 15.671875 29.304688 14.523438 L 30.382812 10.199219 L 27.75 9.542969 L 26.699219 13.753906 C 26.007812 13.582031 25.296875 13.417969 24.589844 13.257812 L 25.644531 9.019531 L 23.015625 8.363281 L 21.933594 12.6875 C 21.363281 12.554688 20.800781 12.425781 20.253906 12.292969 L 20.257812 12.277344 L 16.625 11.371094 L 15.925781 14.183594 C 15.925781 14.183594 17.878906 14.632812 17.835938 14.660156 C 18.902344 14.925781 19.097656 15.632812 19.066406 16.191406 L 17.835938 21.121094 C 17.910156 21.136719 18.003906 21.164062 18.109375 21.207031 C 18.023438 21.183594 17.929688 21.160156 17.832031 21.136719 L 16.109375 28.042969 C 15.980469 28.367188 15.648438 28.851562 14.902344 28.667969 C 14.929688 28.707031 12.988281 28.191406 12.988281 28.191406 L 11.679688 31.203125 L 15.109375 32.058594 C 15.746094 32.21875 16.371094 32.386719 16.984375 32.542969 L 15.894531 36.917969 L 18.527344 37.574219 L 19.605469 33.246094 C 20.324219 33.441406 21.019531 33.621094 21.703125 33.789062 L 20.628906 38.097656 L 23.261719 38.753906 L 24.351562 34.386719 C 28.839844 35.238281 32.21875 34.894531 33.640625 30.832031 C 34.785156 27.5625 33.582031 25.675781 31.21875 24.445312 C 32.941406 24.050781 34.234375 22.917969 34.582031 20.582031 Z M 28.566406 29.015625 C 27.75 32.289062 22.246094 30.519531 20.460938 30.078125 L 21.90625 24.28125 C 23.691406 24.726562 29.414062 25.605469 28.566406 29.015625 Z M 29.378906 20.535156 C 28.636719 23.507812 24.054688 21.996094 22.570312 21.625 L 23.878906 16.367188 C 25.367188 16.738281 30.152344 17.429688 29.378906 20.535156 Z M 29.378906 20.535156 "/>
</g>
</svg>
