<?xml version="1.0" encoding="UTF-8"?>
<svg xmlns="http://www.w3.org/2000/svg" xmlns:xlink="http://www.w3.org/1999/xlink" width="48" height="48" viewBox="0 0 48 48" version="1.1">
<g id="surface1">
<path style=" stroke:none;fill-rule:nonzero;fill:rgb(96.862745%,57.647061%,10.196079%);fill-opacity:1;" d="M 1.199219 24.085938 C 1.199219 11.445312 11.445312 1.199219 24.085938 1.199219 C 36.726562 1.199219 46.972656 11.445312 46.972656 24.085938 C 46.972656 36.726562 36.726562 46.972656 24.085938 46.972656 C 11.445312 46.972656 1.199219 36.726562 1.199219 24.085938 Z M 1.199219 24.085938 "/>
<path style=" stroke:none;fill-rule:nonzero;fill:rgb(100%,100%,100%);fill-opacity:1;" d="M 27.632812 8.828125 C 26.269531 12.371094 24.90625 16.183594 23.265625 20 C 23.265625 20 23.265625 20.542969 23.8125 20.542969 L 35 20.542969 C 35 20.542969 35 20.816406 35.273438 21.089844 L 18.902344 39.34375 C 18.628906 39.070312 18.628906 38.796875 18.628906 38.527344 L 24.359375 26.265625 L 24.359375 25.175781 L 12.898438 25.175781 L 12.898438 24.085938 L 26.816406 8.828125 Z M 27.632812 8.828125 "/>
</g>
</svg>
