<?xml version="1.0" encoding="utf-8"?>
<!-- Generator: Adobe Illustrator 26.0.3, SVG Export Plug-In . SVG Version: 6.00 Build 0)  -->
<svg version="1.0" id="katman_1" xmlns="http://www.w3.org/2000/svg" xmlns:xlink="http://www.w3.org/1999/xlink" x="0px" y="0px"
	 viewBox="0 0 600 450" style="enable-background:new 0 0 600 450;" xml:space="preserve">
<style type="text/css">
	.st0{fill:#26367E;}
	.st1{fill:#FFFFFF;}
	.st2{fill:#FCBD0C;}
</style>
<symbol  id="gt_a-SEPAoumengyinhang" viewBox="-415.1 -415.1 830.1 830.1">
	<path class="st0" d="M-276.7-415.1h553.4c92.2,0,138.4,46.1,138.4,138.4v553.4c0,92.2-46.1,138.4-138.4,138.4h-553.4
		c-92.2,0-138.4-46.1-138.4-138.4v-553.4C-415.1-368.9-368.9-415.1-276.7-415.1L-276.7-415.1z"/>
	<path class="st1" d="M-342.2-42.8c0-3.7,1.9-5.6,1.9-9.3c3.7-22.3,13-31.6,33.5-35.3c26-5.6,52.1-5.6,78.1-1.9s37.2,18.6,37.2,42.8
		v11.2h-44.6v-1.9c-1.9-16.7-5.6-18.6-22.3-18.6h-18.6c-11.2,1.9-16.7,5.6-16.7,18.6c0,11.2,3.7,16.7,16.7,16.7
		c11.2,0,22.3,0,33.5,1.9l33.5,5.6c14.9,3.7,22.3,14.9,24.2,29.8c0,13,0,27.9-1.9,40.9c-1.9,14.9-11.2,24.2-24.2,27.9
		c-11.2,3.7-20.5,5.6-31.6,7.4h-33.5c-11.2-1.9-22.3-1.9-33.5-3.7c-16.7-3.7-27.9-14.9-29.8-31.6c0-1.9-1.9-5.6-1.9-7.4V33.5h44.6
		c1.9,16.7,5.6,22.3,16.7,22.3h33.5c11.2,0,14.9-7.4,14.9-18.6s-5.6-16.7-14.9-16.7c-16.7-1.9-35.3-3.7-52.1-5.6
		c-24.2-1.9-35.3-13-39.1-37.2c0-1.9-1.9-3.7-1.9-5.6C-342.2-33.5-342.2-37.2-342.2-42.8L-342.2-42.8z M18.6,93V-83.7
		c0-7.4,1.9-9.3,9.3-9.3c31.6,0,63.2,0,94.9,1.9c33.5,1.9,50.2,18.6,52.1,52.1c1.9,14.9,0,29.8-1.9,44.6
		c-3.7,22.3-20.5,37.2-44.6,37.2H65.1v48.4C50.2,93,33.5,93,18.6,93z M65.1,1.9h42.8c11.2,0,14.9-5.6,14.9-16.7v-18.6
		c0-13-5.6-18.6-18.6-20.5H70.7c-1.9,0-5.6,3.7-5.6,3.7L65.1,1.9L65.1,1.9z M154.4,93c11.2-39.1,24.2-80,35.3-119
		c7.4-22.3,13-44.6,20.5-67h70.7c1.9,0,5.6,3.7,5.6,5.6L336.7,80c1.9,3.7,3.7,9.3,5.6,13H292c-3.7-9.3-5.6-18.6-9.3-27.9
		c-1.9-1.9-3.7-5.6-5.6-5.6h-59.5c-1.9,0-5.6,1.9-5.6,3.7c-3.7,9.3-5.6,20.5-7.5,29.8L154.4,93z M249.3-53.9h-1.9
		c-7.4,26-14.9,53.9-22.3,80h48.4C266-1.9,256.7-27.9,249.3-53.9z"/>
	<path class="st2" d="M-42.8,63.2c-29.8,0-52.1-13-61.4-33.5h67l7.4-20.5h-81.9V-5.6l83.7,3.7l9.3-24.1h-89.3
		c9.3-26,33.5-39.1,65.1-39.1c13.4-0.1,26.6,2.5,39.1,7.4l7.4-26c-7.4-3.7-24.2-7.4-48.4-7.4c-50.2,0-89.3,24.2-102.3,67h-22.3
		l-9.3,20.5h27.9V13h-16.7l-11.2,20.5h31.6C-135.8,70.7-100.4,93-50.2,93C-26,93-7.4,89.3,0,85.5l-5.6-26
		C-13,61.4-27.9,63.3-42.8,63.2L-42.8,63.2z"/>
</symbol>
<use xlink:href="#gt_a-SEPAoumengyinhang"  width="830.1" height="830.1" x="-415.1" y="-415.1" transform="matrix(0.3847 0 0 0.3847 300 225)" style="overflow:visible;"/>
</svg>
